<mxfile host="65bd71144e">
    <diagram id="9KljpbDnLhklTwh1eW3z" name="第 1 页">
        <mxGraphModel dx="1216" dy="792" grid="1" gridSize="10" guides="1" tooltips="1" connect="1" arrows="1" fold="1" page="1" pageScale="1" pageWidth="827" pageHeight="1169" math="0" shadow="0">
            <root>
                <mxCell id="0"/>
                <mxCell id="1" parent="0"/>
                <mxCell id="2" value="&lt;font style=&quot;font-size: 48px;&quot;&gt;工程&lt;/font&gt;" style="rounded=1;whiteSpace=wrap;html=1;" vertex="1" parent="1">
                    <mxGeometry x="40" y="250" width="120" height="320" as="geometry"/>
                </mxCell>
                <mxCell id="3" value="包" style="rounded=0;whiteSpace=wrap;html=1;fontSize=48;" vertex="1" parent="1">
                    <mxGeometry x="210" y="250" width="120" height="60" as="geometry"/>
                </mxCell>
                <mxCell id="4" value="包" style="rounded=0;whiteSpace=wrap;html=1;fontSize=48;" vertex="1" parent="1">
                    <mxGeometry x="210" y="340" width="120" height="60" as="geometry"/>
                </mxCell>
                <mxCell id="5" value="包" style="rounded=0;whiteSpace=wrap;html=1;fontSize=48;" vertex="1" parent="1">
                    <mxGeometry x="210" y="420" width="120" height="60" as="geometry"/>
                </mxCell>
                <mxCell id="6" value="包" style="rounded=0;whiteSpace=wrap;html=1;fontSize=48;" vertex="1" parent="1">
                    <mxGeometry x="210" y="500" width="120" height="60" as="geometry"/>
                </mxCell>
                <mxCell id="7" value="模块（Python文件）" style="rounded=1;whiteSpace=wrap;html=1;fontSize=48;" vertex="1" parent="1">
                    <mxGeometry x="370" y="210" width="470" height="60" as="geometry"/>
                </mxCell>
                <mxCell id="8" value="模块（Python文件）" style="rounded=1;whiteSpace=wrap;html=1;fontSize=48;" vertex="1" parent="1">
                    <mxGeometry x="370" y="300" width="470" height="60" as="geometry"/>
                </mxCell>
                <mxCell id="9" value="模块（Python文件）" style="rounded=1;whiteSpace=wrap;html=1;fontSize=48;" vertex="1" parent="1">
                    <mxGeometry x="370" y="380" width="470" height="60" as="geometry"/>
                </mxCell>
                <mxCell id="10" value="类" style="rounded=0;whiteSpace=wrap;html=1;fontSize=48;" vertex="1" parent="1">
                    <mxGeometry x="900" y="180" width="120" height="60" as="geometry"/>
                </mxCell>
                <mxCell id="11" value="类" style="rounded=0;whiteSpace=wrap;html=1;fontSize=48;" vertex="1" parent="1">
                    <mxGeometry x="900" y="270" width="120" height="60" as="geometry"/>
                </mxCell>
                <mxCell id="12" value="类" style="rounded=0;whiteSpace=wrap;html=1;fontSize=48;" vertex="1" parent="1">
                    <mxGeometry x="900" y="360" width="120" height="60" as="geometry"/>
                </mxCell>
                <mxCell id="13" value="函数" style="rounded=0;whiteSpace=wrap;html=1;fontSize=48;" vertex="1" parent="1">
                    <mxGeometry x="900" y="460" width="120" height="60" as="geometry"/>
                </mxCell>
                <mxCell id="14" value="函数" style="rounded=0;whiteSpace=wrap;html=1;fontSize=48;" vertex="1" parent="1">
                    <mxGeometry x="900" y="555" width="120" height="60" as="geometry"/>
                </mxCell>
                <mxCell id="15" value="属性" style="rounded=1;whiteSpace=wrap;html=1;fontSize=48;" vertex="1" parent="1">
                    <mxGeometry x="1060" y="120" width="120" height="60" as="geometry"/>
                </mxCell>
                <mxCell id="16" value="方法" style="rounded=1;whiteSpace=wrap;html=1;fontSize=48;" vertex="1" parent="1">
                    <mxGeometry x="1060" y="210" width="120" height="60" as="geometry"/>
                </mxCell>
                <mxCell id="17" value="变量" style="rounded=0;whiteSpace=wrap;html=1;fontSize=48;" vertex="1" parent="1">
                    <mxGeometry x="900" y="660" width="120" height="60" as="geometry"/>
                </mxCell>
                <mxCell id="18" value="变量" style="rounded=0;whiteSpace=wrap;html=1;fontSize=48;" vertex="1" parent="1">
                    <mxGeometry x="1090" y="430" width="120" height="60" as="geometry"/>
                </mxCell>
                <mxCell id="19" value="函数" style="rounded=0;whiteSpace=wrap;html=1;fontSize=48;" vertex="1" parent="1">
                    <mxGeometry x="1090" y="510" width="120" height="60" as="geometry"/>
                </mxCell>
            </root>
        </mxGraphModel>
    </diagram>
</mxfile>